HIERARCHY
ROOT hip
{
  OFFSET 0 0 0
  CHANNELS 6 Xposition Yposition Zposition Zrotation Yrotation Xrotation
  JOINT abdomen
  {
    OFFSET 0 20.6881 -0.73152
    CHANNELS 3 Zrotation Xrotation Yrotation
    JOINT chest
    {
      OFFSET 0 11.7043 -0.48768
      CHANNELS 3 Zrotation Xrotation Yrotation
      JOINT neck
      {
        OFFSET 0 22.1894 -2.19456
        CHANNELS 3 Zrotation Xrotation Yrotation
        JOINT head
        {
          OFFSET -0.24384 7.07133 1.2192
          CHANNELS 3 Zrotation Xrotation Yrotation
          JOINT leftEye
          {
            OFFSET 4.14528 8.04674 8.04672
            CHANNELS 3 Zrotation Xrotation Yrotation
            End Site
            {
              OFFSET 1 0 0
            }
          }
          JOINT rightEye
          {
            OFFSET -3.6576 8.04674 8.04672
            CHANNELS 3 Zrotation Xrotation Yrotation
            End Site
            {
              OFFSET 1 0 0
            }
          }
        }
      }
      JOINT rCollar
      {
        OFFSET -2.68224 19.2634 -4.8768
        CHANNELS 3 Zrotation Xrotation Yrotation
        JOINT rShldr
        {
          OFFSET -8.77824 -1.95073 1.46304
          CHANNELS 3 Zrotation Xrotation Yrotation
          JOINT rForeArm
          {
            OFFSET -28.1742 -1.7115 0.48768
            CHANNELS 3 Zrotation Xrotation Yrotation
            JOINT rHand
            {
              OFFSET -22.5879 0.773209 7.07136
              CHANNELS 3 Zrotation Xrotation Yrotation
              JOINT rThumb1
              {
                OFFSET -1.2192 -0.487915 3.41376
                CHANNELS 3 Zrotation Xrotation Yrotation
                JOINT rThumb2
                {
                  OFFSET -3.37035 -0.52449 3.41376
                  CHANNELS 3 Zrotation Xrotation Yrotation
                  End Site
                  {
                    OFFSET -1.78271 -1.18214 1.43049
                  }
                }
              }
              JOINT rIndex1
              {
                OFFSET -7.75947 0.938293 5.60832
                CHANNELS 3 Zrotation Xrotation Yrotation
                JOINT rIndex2
                {
                  OFFSET -2.54057 -0.884171 1.56538
                  CHANNELS 3 Zrotation Xrotation Yrotation
                  End Site
                  {
                    OFFSET -1.62519 -0.234802 1.16502
                  }
                }
              }
              JOINT rMid1
              {
                OFFSET -8.24714 1.18213 3.41376
                CHANNELS 3 Zrotation Xrotation Yrotation
                JOINT rMid2
                {
                  OFFSET -3.10165 -0.590103 1.0647
                  CHANNELS 3 Zrotation Xrotation Yrotation
                  End Site
                  {
                    OFFSET -2.48547 -0.328903 0.83742
                  }
                }
              }
              JOINT rRing1
              {
                OFFSET -8.82822 0.546677 1.51678
                CHANNELS 3 Zrotation Xrotation Yrotation
                JOINT rRing2
                {
                  OFFSET -2.60934 -0.819778 -0.0198488
                  CHANNELS 3 Zrotation Xrotation Yrotation
                  End Site
                  {
                    OFFSET -2.33842 -0.294052 0.168128
                  }
                }
              }
              JOINT rPinky1
              {
                OFFSET -8.27202 -0.0477905 -0.4584
                CHANNELS 3 Zrotation Xrotation Yrotation
                JOINT rPinky2
                {
                  OFFSET -1.82734 -0.647385 -0.700984
                  CHANNELS 3 Zrotation Xrotation Yrotation
                  End Site
                  {
                    OFFSET -1.69225 -0.51767 -0.607171
                  }
                }
              }
            }
          }
        }
      }
      JOINT lCollar
      {
        OFFSET 2.68224 19.2634 -4.8768
        CHANNELS 3 Zrotation Xrotation Yrotation
        JOINT lShldr
        {
          OFFSET 8.77824 -1.95073 1.46304
          CHANNELS 3 Zrotation Xrotation Yrotation
          JOINT lForeArm
          {
            OFFSET 28.1742 -1.7115 0.48768
            CHANNELS 3 Zrotation Xrotation Yrotation
            JOINT lHand
            {
              OFFSET 22.5879 0.773209 7.07136
              CHANNELS 3 Zrotation Xrotation Yrotation
              JOINT lThumb1
              {
                OFFSET 1.2192 -0.487915 3.41376
                CHANNELS 3 Zrotation Xrotation Yrotation
                JOINT lThumb2
                {
                  OFFSET 3.37035 -0.52449 3.41376
                  CHANNELS 3 Zrotation Xrotation Yrotation
                  End Site
                  {
                    OFFSET 1.78271 -1.18214 1.43049
                  }
                }
              }
              JOINT lIndex1
              {
                OFFSET 7.75947 0.938293 5.60832
                CHANNELS 3 Zrotation Xrotation Yrotation
                JOINT lIndex2
                {
                  OFFSET 2.54057 -0.884171 1.56538
                  CHANNELS 3 Zrotation Xrotation Yrotation
                  End Site
                  {
                    OFFSET 1.62519 -0.234802 1.16502
                  }
                }
              }
              JOINT lMid1
              {
                OFFSET 8.24714 1.18213 3.41376
                CHANNELS 3 Zrotation Xrotation Yrotation
                JOINT lMid2
                {
                  OFFSET 3.10165 -0.590103 1.0647
                  CHANNELS 3 Zrotation Xrotation Yrotation
                  End Site
                  {
                    OFFSET 2.48547 -0.328903 0.83742
                  }
                }
              }
              JOINT lRing1
              {
                OFFSET 8.82822 0.546677 1.51678
                CHANNELS 3 Zrotation Xrotation Yrotation
                JOINT lRing2
                {
                  OFFSET 2.60934 -0.819778 -0.0198488
                  CHANNELS 3 Zrotation Xrotation Yrotation
                  End Site
                  {
                    OFFSET 2.33842 -0.294052 0.168128
                  }
                }
              }
              JOINT lPinky1
              {
                OFFSET 8.27202 -0.0477905 -0.4584
                CHANNELS 3 Zrotation Xrotation Yrotation
                JOINT lPinky2
                {
                  OFFSET 1.82734 -0.647385 -0.700984
                  CHANNELS 3 Zrotation Xrotation Yrotation
                  End Site
                  {
                    OFFSET 1.69225 -0.51767 -0.607171
                  }
                }
              }
            }
          }
        }
      }
    }
  }
  JOINT rButtock
  {
    OFFSET -8.77824 4.35084 1.2192
    CHANNELS 3 Zrotation Xrotation Yrotation
    JOINT rThigh
    {
      OFFSET 0 -1.70687 -2.19456
      CHANNELS 3 Zrotation Xrotation Yrotation
      JOINT rShin
      {
        OFFSET 0 -36.8199 0.73152
        CHANNELS 3 Zrotation Xrotation Yrotation
        JOINT rFoot
        {
          OFFSET 0.73152 -45.1104 -5.12064
          CHANNELS 3 Zrotation Xrotation Yrotation
          End Site
          {
            OFFSET -1.1221 -3.69964 12.103
          }
        }
      }
    }
  }
  JOINT lButtock
  {
    OFFSET 8.77824 4.35084 1.2192
    CHANNELS 3 Zrotation Xrotation Yrotation
    JOINT lThigh
    {
      OFFSET 0 -1.70687 -2.19456
      CHANNELS 3 Zrotation Xrotation Yrotation
      JOINT lShin
      {
        OFFSET 0 -36.8199 0.73152
        CHANNELS 3 Zrotation Xrotation Yrotation
        JOINT lFoot
        {
          OFFSET -0.73152 -45.1104 -5.12064
          CHANNELS 3 Zrotation Xrotation Yrotation
          End Site
          {
            OFFSET 1.1221 -3.69964 12.103
          }
        }
      }
    }
  }
}
MOTION
Frames:	8
Frame Time:	0.00833333
77.4822 84.5294 15.2687 0.0 0.0 0.0 -0.769347 -0.0038603 -0.0215834 -0.212073 -0.00504115 -0.036744 2.21904e-14 -1.59028e-15 6.21203e-17 6.6627e-14 3.18055e-15 2.11209e-16 -0.0 0.0 0.0 -0.0 0.0 0.0 1.10317e-14 1.94126e-17 1.98785e-16 2.35e-13 2.85753e-16 2.38542e-15 4.01098e-12 -1.18953e-12 -9.54166e-15 4.5921e-11 1.26097e-12 1.97194e-13 1.08316e-10 1.52769e-13 3.78486e-13 1.87045e-10 2.70347e-13 6.45653e-13 1.08322e-10 1.53064e-13 3.68944e-13 7.73091 5.47488 0.417314 1.08317e-10 1.52766e-13 3.78486e-13 2.90554 0.965183 0.102902 1.08324e-10 1.53064e-13 3.75305e-13 10.2786 0.731801 0.0259123 1.08313e-10 1.5545e-13 3.84847e-13 2.22167 -0.733487 -0.20892 1.10341e-14 1.86361e-17 -9.93923e-17 2.3029e-13 -3.10601e-17 1.98785e-16 4.01396e-12 1.20841e-12 -3.81667e-14 4.5909e-11 -1.15337e-12 2.22639e-13 1.08301e-10 1.22964e-13 3.72125e-13 1.87042e-10 2.16278e-13 6.35316e-13 1.08296e-10 1.23246e-13 3.78486e-13 -7.73091 5.47488 -0.417314 1.08301e-10 1.2265e-13 3.68944e-13 -2.90554 0.965183 -0.102902 1.08299e-10 1.22849e-13 3.70535e-13 -10.2786 0.731801 -0.0259123 1.08307e-10 1.26427e-13 3.65764e-13 -2.22167 -0.733487 0.20892 -2.03217e-16 0.0 -3.88251e-19 -0.0539014 -2.09674 -0.0177083 -0.00904025 -1.75491 -0.0760435 -0.528944 3.85119 0.139779 2.03217e-16 0.0 3.88251e-19 -1.11486 -4.98914 0.0938578 0.00115137 3.48418 -0.00507171 0.536998 1.50463 -0.0922787
70.0925 82.9938 8.42911 129.782 -88.5406 -131.682 -1.1057 -0.901017 0.44868 -0.909742 2.20856 0.140493 -0.615911 2.99133 -0.232288 1.98362 -5.7563 -0.0714334 -0.0 0.0 0.0 -0.0 0.0 0.0 7.71584e-14 -6.93923e-14 -1.96141e-14 21.3805 9.28781 1.13544 -8.71698 -5.59816 11.3755 0.0261651 3.58936 0.500881 1.19206e-10 6.8406e-12 -4.3482e-11 2.05854e-10 1.20995e-11 -7.48278e-11 1.19211e-10 6.83944e-12 -4.34898e-11 7.73091 5.47488 0.417314 1.19207e-10 6.83981e-12 -4.3479e-11 2.90554 0.965183 0.102902 1.19214e-10 6.83904e-12 -4.34833e-11 10.2786 0.731801 0.0259123 1.19203e-10 6.84104e-12 -4.34745e-11 2.22167 -0.733487 -0.20892 7.71517e-14 -6.93889e-14 -1.98827e-14 -19.8206 9.63139 -1.82829 10.0143 -6.87427 -12.3125 -0.0185753 3.04006 -0.425119 -8.56699e-11 2.34211e-11 3.64886e-11 -1.48013e-10 4.06961e-11 6.38565e-11 -8.56739e-11 2.3422e-11 3.64958e-11 -7.73091 5.47488 -0.417314 -8.56702e-11 2.34223e-11 3.64872e-11 -2.90554 0.965183 -0.102902 -8.56738e-11 2.3422e-11 3.64872e-11 -10.2786 0.731801 -0.0259123 -8.56647e-11 2.34246e-11 3.64823e-11 -2.22167 -0.733487 0.20892 -2.03217e-16 0.0 -3.88251e-19 -1.9329 -5.90665 1.53829 0.043264 10.6435 0.135272 -1.51659 -3.39253 -5.82608 2.03217e-16 0.0 3.88251e-19 1.02333 -8.33216 0.3602 -0.0164807 14.0812 -0.182248 1.58437 -6.80078 5.4811
70.0424 83.0042 8.50234 128.921 -88.4658 -130.917 -1.44294 -1.84707 0.945207 -1.65975 4.54959 0.328227 -1.24425 6.14934 -0.481577 4.08078 -11.8241 -0.15046 -0.0 0.0 0.0 -0.0 0.0 0.0 1.50375e-13 -1.49446e-13 -4.15615e-14 43.5525 19.0957 2.4437 -15.5503 -10.7818 23.7367 -0.0149264 7.38221 1.03686 1.26577e-10 1.6789e-11 -8.1037e-11 2.18684e-10 2.96122e-11 -1.39308e-10 1.26581e-10 1.67862e-11 -8.10429e-11 7.73091 5.47488 0.417314 1.26578e-10 1.67873e-11 -8.10306e-11 2.90554 0.965183 0.102902 1.26585e-10 1.67854e-11 -8.10361e-11 10.2786 0.731801 0.0259123 1.26572e-10 1.67869e-11 -8.1028e-11 2.22167 -0.733487 -0.20892 1.50359e-13 -1.49438e-13 -4.17976e-14 -40.0607 19.7919 -3.94839 17.4178 -13.0695 -25.8575 0.0113661 6.28939 -0.88362 -2.77844e-10 4.57532e-11 6.7481e-11 -4.79982e-10 7.95157e-11 1.18172e-10 -2.77847e-10 4.57546e-11 6.74892e-11 -7.73091 5.47488 -0.417314 -2.77845e-10 4.5756e-11 6.74814e-11 -2.90554 0.965183 -0.102902 -2.77851e-10 4.5755e-11 6.74798e-11 -10.2786 0.731801 -0.0259123 -2.77841e-10 4.57566e-11 6.74747e-11 -2.22167 -0.733487 0.20892 -2.03217e-16 0.0 -3.88251e-19 -3.69239 -9.92574 3.20705 -0.00822643 23.7506 0.386534 -4.21002 -10.836 -12.3255 2.03217e-16 0.0 3.88251e-19 3.31941 -11.8658 0.645746 0.0432156 25.2826 -0.396255 4.49402 -15.3339 11.7159
69.9973 83.005 8.6362 123.786 -88.2926 -125.766 -1.7342 -2.69462 1.39058 -2.34639 6.63553 0.497989 -1.7742 8.97341 -0.704537 5.90608 -17.2688 -0.223285 -0.0 0.0 0.0 -0.0 0.0 0.0 2.09412e-13 -2.08216e-13 -5.92398e-14 62.9152 27.8167 3.80148 -19.7554 -14.1392 35.1759 -0.112622 10.7648 1.52657 1.40986e-10 2.02163e-11 -1.31203e-10 2.43473e-10 3.57577e-11 -2.25775e-10 1.4099e-10 2.02122e-11 -1.31207e-10 7.73091 5.47488 0.417314 1.40987e-10 2.02139e-11 -1.31194e-10 2.90554 0.965183 0.102902 1.40995e-10 2.0211e-11 -1.312e-10 10.2786 0.731801 0.0259123 1.40981e-10 2.02122e-11 -1.31193e-10 2.22167 -0.733487 -0.20892 2.09387e-13 -2.08204e-13 -5.94494e-14 -57.4008 28.7679 -6.17171 21.5537 -16.7863 -38.5907 0.0810751 9.11816 -1.28986 -4.73611e-10 7.00175e-11 1.08722e-10 -8.18124e-10 1.21656e-10 1.90299e-10 -4.73613e-10 7.00195e-11 1.08731e-10 -7.73091 5.47488 -0.417314 -4.73612e-10 7.00216e-11 1.08724e-10 -2.90554 0.965183 -0.102902 -4.7362e-10 7.00202e-11 1.08721e-10 -10.2786 0.731801 -0.0259123 -4.73609e-10 7.00208e-11 1.08715e-10 -2.22167 -0.733487 0.20892 -2.03217e-16 0.0 -3.88251e-19 -5.0552 -13.4879 4.75726 -0.173873 35.4384 0.676113 -8.10021 -17.0545 -18.5709 2.03217e-16 0.0 3.88251e-19 5.39611 -15.0168 0.913385 0.183821 35.2738 -0.63718 8.77722 -22.4808 17.9138
69.9539 83.0011 8.68386 123.858 -88.2133 -125.814 -1.94143 -3.29661 1.70677 -2.84549 8.08396 0.619909 -2.11102 10.9632 -0.854292 7.08482 -21.1556 -0.271892 -0.0 0.0 0.0 -0.0 0.0 0.0 2.32998e-13 -2.13775e-13 -6.6245e-14 76.1654 33.8654 4.90815 -21.8187 -15.4874 43.3022 -0.216042 13.1247 1.87784 1.72992e-10 7.34072e-12 -2.12897e-10 2.98158e-10 1.34856e-11 -3.67208e-10 1.72996e-10 7.33635e-12 -2.129e-10 7.73091 5.47488 0.417314 1.72993e-10 7.33833e-12 -2.12887e-10 2.90554 0.965183 0.102902 1.73001e-10 7.33496e-12 -2.12894e-10 10.2786 0.731801 0.0259123 1.72987e-10 7.33595e-12 -2.12887e-10 2.22167 -0.733487 -0.20892 2.32968e-13 -2.13761e-13 -6.64438e-14 -69.0326 34.9042 -7.9969 23.3833 -17.9874 -47.7138 0.147905 10.8976 -1.55048 -6.78359e-10 9.91124e-11 1.75583e-10 -1.1717e-09 1.72097e-10 3.06957e-10 -6.78361e-10 9.91148e-11 1.75592e-10 -7.73091 5.47488 -0.417314 -6.7836e-10 9.91173e-11 1.75586e-10 -2.90554 0.965183 -0.102902 -6.78369e-10 9.91157e-11 1.75582e-10 -10.2786 0.731801 -0.0259123 -6.78358e-10 9.91156e-11 1.75576e-10 -2.22167 -0.733487 0.20892 -2.03217e-16 0.0 -3.88251e-19 -5.87578 -15.9426 5.91558 -0.387501 43.58 0.950325 -11.7021 -21.0221 -23.3294 2.03217e-16 0.0 3.88251e-19 6.85677 -17.2123 1.1193 0.35022 42.2408 -0.855045 12.7951 -27.0582 22.7564
69.9167 83.0011 8.74372 123.18 -88.16 -125.138 -2.04905 -3.55923 1.84647 -3.07324 8.63467 0.674544 -2.19199 11.8001 -0.896565 7.3667 -22.8786 -0.281928 -0.0 0.0 0.0 -0.0 0.0 0.0 2.01717e-13 -1.14921e-13 -5.59284e-14 81.3896 36.2088 5.34156 -22.4573 -15.729 46.4228 -0.264821 14.0521 2.01857 2.1314e-10 -3.21816e-11 -3.46549e-10 3.6614e-10 -5.52633e-11 -5.99157e-10 2.13144e-10 -3.21844e-11 -3.46551e-10 7.73091 5.47488 0.417314 2.13142e-10 -3.21826e-11 -3.46542e-10 2.90554 0.965183 0.102902 2.13149e-10 -3.21857e-11 -3.46547e-10 10.2786 0.731801 0.0259123 2.13136e-10 -3.21848e-11 -3.46542e-10 2.22167 -0.733487 -0.20892 2.01688e-13 -1.1491e-13 -5.61427e-14 -73.5704 37.1606 -8.69546 23.9527 -18.1226 -51.3354 0.163921 11.1529 -1.58883 -8.95819e-10 1.29194e-10 2.491e-10 -1.54734e-09 2.24213e-10 4.35614e-10 -8.9582e-10 1.29197e-10 2.4911e-10 -7.73091 5.47488 -0.417314 -8.95819e-10 1.29199e-10 2.49104e-10 -2.90554 0.965183 -0.102902 -8.95828e-10 1.29198e-10 2.491e-10 -10.2786 0.731801 -0.0259123 -8.95819e-10 1.29197e-10 2.49094e-10 -2.22167 -0.733487 0.20892 -2.03217e-16 0.0 -3.88251e-19 -6.14944 -16.8734 6.46389 -0.502452 46.7595 1.08417 -13.3693 -22.4546 -25.3973 2.03217e-16 0.0 3.88251e-19 7.41348 -18.0676 1.21849 0.436146 44.9717 -0.957205 14.6246 -28.7369 24.8101
69.8874 82.9999 8.79268 122.7 -88.147 -124.654 -2.08869 -3.5794 1.85956 -3.10378 8.54446 0.680412 -2.09607 11.8129 -0.860558 7.0121 -23.0552 -0.262407 -0.0 0.0 0.0 -0.0 0.0 0.0 1.31494e-13 5.70876e-14 -3.33523e-14 81.0276 35.9172 5.18842 -22.3446 -15.6432 45.941 -0.25948 13.9572 2.00407 2.59891e-10 -9.05552e-11 -5.16941e-10 4.44979e-10 -1.56891e-10 -8.95115e-10 2.59893e-10 -9.05552e-11 -5.16943e-10 7.73091 5.47488 0.417314 2.59891e-10 -9.05538e-11 -5.16939e-10 2.90554 0.965183 0.102902 2.59898e-10 -9.05563e-11 -5.16942e-10 10.2786 0.731801 0.0259123 2.59887e-10 -9.05554e-11 -5.16939e-10 2.22167 -0.733487 -0.20892 1.31469e-13 5.70956e-14 -3.36008e-14 -73.2882 36.677 -8.40898 23.922 -18.1694 -51.035 0.138207 10.3224 -1.46736 -1.12235e-09 1.60255e-10 3.28763e-10 -1.93871e-09 2.78e-10 5.7524e-10 -1.12235e-09 1.60258e-10 3.28774e-10 -7.73091 5.47488 -0.417314 -1.12235e-09 1.60259e-10 3.28767e-10 -2.90554 0.965183 -0.102902 -1.12236e-09 1.60259e-10 3.28764e-10 -10.2786 0.731801 -0.0259123 -1.12235e-09 1.60258e-10 3.28757e-10 -2.22167 -0.733487 0.20892 -2.03217e-16 0.0 -3.88251e-19 -6.08551 -16.7234 6.55697 -0.48851 46.3955 1.06938 -13.2826 -22.2724 -25.3684 2.03217e-16 0.0 3.88251e-19 7.31651 -17.9661 1.23864 0.426241 44.6775 -0.945475 14.434 -28.5616 24.6103
69.8638 82.9991 8.83294 122.178 -88.1719 -124.133 -2.09452 -3.49628 1.81359 -3.04845 8.20647 0.663924 -1.94408 11.4726 -0.792924 6.41501 -22.5858 -0.228161 -0.0 0.0 0.0 -0.0 0.0 0.0 5.40746e-14 2.1049e-13 -9.67988e-15 78.4097 34.572 4.80964 -21.9285 -15.4215 44.0353 -0.232646 13.4582 1.92821 3.3567e-10 -1.50353e-10 -6.89519e-10 5.73855e-10 -2.60964e-10 -1.19498e-09 3.35671e-10 -1.5035e-10 -6.89522e-10 7.73091 5.47488 0.417314 3.3567e-10 -1.5035e-10 -6.89522e-10 2.90554 0.965183 0.102902 3.35676e-10 -1.50351e-10 -6.89523e-10 10.2786 0.731801 0.0259123 3.35667e-10 -1.5035e-10 -6.89521e-10 2.22167 -0.733487 -0.20892 5.40538e-14 2.10494e-13 -9.96253e-15 -71.054 35.1022 -7.75728 23.6545 -18.1849 -49.1547 0.104733 9.1477 -1.2968 -1.35229e-09 2.0095e-10 4.57624e-10 -2.33565e-09 3.48369e-10 7.99802e-10 -1.35229e-09 2.00954e-10 4.57634e-10 -7.73091 5.47488 -0.417314 -1.35229e-09 2.00954e-10 4.57628e-10 -2.90554 0.965183 -0.102902 -1.3523e-09 2.00954e-10 4.57625e-10 -10.2786 0.731801 -0.0259123 -1.35229e-09 2.00953e-10 4.57618e-10 -2.22167 -0.733487 0.20892 -2.03217e-16 0.0 -3.88251e-19 -5.88532 -16.1382 6.462 -0.423093 44.6122 0.995268 -12.4865 -21.4615 -24.4887 2.03217e-16 0.0 3.88251e-19 6.97281 -17.4868 1.24244 0.378243 43.1787 -0.888209 13.4172 -27.6389 23.4833
